<?xml version='1.0' encoding='iso-8859-1'?>
<!DOCTYPE svg PUBLIC '-//W3C//DTD SVG 1.1//EN' 'http://www.w3.org/Graphics/SVG/1.1/DTD/svg11.dtd'>
<svg version="1.1" xmlns="http://www.w3.org/2000/svg" viewBox="0 0 268.333 268.333" xmlns:xlink="http://www.w3.org/1999/xlink" enable-background="new 0 0 268.333 268.333">
  <g>
    <path style="fill:rgb(109, 81, 71);" d="m250.833,29.916h-19.333v-11.5c0-6.996-5.671-12.667-12.667-12.667h-169.333c-6.996,0-12.667,5.671-12.667,12.667v11.5h-19.333c-9.665,0-17.5,7.835-17.5,17.5 0,9.665 7.835,17.5 17.5,17.5h19.333v1.01c0,53.117 43.578,96.177 97.333,96.177 53.756,0 97.333-43.06 97.333-96.177v-1.01h19.333c9.665,0 17.5-7.835 17.5-17.5 0.001-9.665-7.834-17.5-17.499-17.5z"/>
    <path style="fill:rgb(94, 89, 89);" d="m188.249,238.75h-108.165c-6.581,0-11.917,5.335-11.917,11.917s5.335,11.917 11.917,11.917h108.165c6.581,0 11.917-5.335 11.917-11.917s-5.336-11.917-11.917-11.917z"/>
  </g>
</svg>
