<?xml version='1.0' encoding='iso-8859-1'?>
<!DOCTYPE svg PUBLIC '-//W3C//DTD SVG 1.1//EN' 'http://www.w3.org/Graphics/SVG/1.1/DTD/svg11.dtd'>
<svg version="1.1" xmlns="http://www.w3.org/2000/svg" viewBox="0 0 268.333 268.333" xmlns:xlink="http://www.w3.org/1999/xlink" enable-background="new 0 0 268.333 268.333">
  <g>
    <path xmlns="http://www.w3.org/2000/svg" style="fill:rgb(235, 50, 50);" d="m136.387,171.466c-0.597-0.287-1.314-0.128-1.732,0.386-4.046,4.973-13.248,13.791-11.726,25.061 1.732,12.826 9.576,19.437 7.998,27.723-0.225,1.179 0.362,2.365 1.436,2.901 1.074,0.537 2.373,0.295 3.183-0.592 6.111-6.69 12.376-16.231 9.149-24.94-4.881-13.174-9.674-19.021-7.528-28.945 0.139-0.647-0.183-1.306-0.78-1.594z"/>
    <path xmlns="http://www.w3.org/2000/svg" style="fill:rgb(235, 50, 50);" d="m172.529,171.466c-0.597-0.287-1.314-0.128-1.732,0.386-4.046,4.973-13.248,13.791-11.726,25.061 1.732,12.826 9.576,19.437 7.998,27.723-0.225,1.179 0.362,2.365 1.436,2.901 1.074,0.537 2.373,0.295 3.183-0.592 6.111-6.69 12.376-16.231 9.149-24.94-4.881-13.174-9.674-19.021-7.528-28.945 0.139-0.647-0.183-1.306-0.78-1.594z"/>
    <path xmlns="http://www.w3.org/2000/svg" style="fill:rgb(235, 50, 50);" d="m100.245,171.466c-0.597-0.287-1.314-0.128-1.732,0.386-4.046,4.973-13.248,13.791-11.726,25.061 1.732,12.826 9.576,19.437 7.998,27.723-0.225,1.179 0.362,2.365 1.436,2.901 1.074,0.537 2.373,0.295 3.183-0.592 6.111-6.69 12.376-16.231 9.149-24.94-4.881-13.174-9.674-19.021-7.528-28.945 0.14-0.647-0.183-1.306-0.78-1.594z"/>
  </g>
</svg>
